<svg width="48" height="48" viewBox="0 0 48 48" xmlns="http://www.w3.org/2000/svg">
  <circle cx="24" cy="24" r="23" fill="#FEE9ED" stroke="#F6B1C0" stroke-width="2"/>
  <path d="M28.9 17.2c1-.1 2 .4 2.6 1.2-.7.4-1.5.6-2.3.5-.1-1 .2-1.5-.3-1.7zm1.4 3c1.4 0 2.7.8 3.4 2-.9.6-1.5 1.6-1.6 2.7-.1 1.4.7 2.7 1.8 3.4-.5 1.3-1.2 2.6-2.1 3.8-.7 1-1.3 1.9-2.3 1.9-.9 0-1.7-.6-2.6-.6s-1.8.6-2.6.6c-1 0-1.7-.9-2.3-1.8-1.7-2.2-3-4.5-3.1-7-.1-2.3 1.1-4.4 2.9-4.4 1 0 2 .6 2.6.6.6 0 1.8-.7 3.1-.7z" fill="#1C1C1C"/>
</svg>

