<svg width="32" height="32" viewBox="0 0 32 32" fill="none" xmlns="http://www.w3.org/2000/svg">
<path d="M15.5639 9.6293C14.3959 9.6293 12.5879 8.3013 10.6839 8.3493C8.17193 8.3813 5.86793 9.8053 4.57193 12.0613C1.96393 16.5893 3.89993 23.2773 6.44393 26.9573C7.69193 28.7493 9.16393 30.7653 11.1159 30.7013C12.9879 30.6213 13.6919 29.4853 15.9639 29.4853C18.2199 29.4853 18.8599 30.7013 20.8439 30.6533C22.8599 30.6213 24.1399 28.8293 25.3719 27.0213C26.7959 24.9413 27.3879 22.9253 27.4199 22.8133C27.3719 22.7973 23.4999 21.3093 23.4519 16.8293C23.4199 13.0853 26.5079 11.2933 26.6519 11.2133C24.8919 8.6373 22.1879 8.3493 21.2439 8.2853C18.7799 8.0933 16.7159 9.6293 15.5639 9.6293ZM19.7239 5.8533C20.7639 4.6053 21.4519 2.8613 21.2599 1.1333C19.7719 1.1973 17.9799 2.1253 16.9079 3.3733C15.9479 4.4773 15.1159 6.2533 15.3399 7.9493C16.9879 8.0773 18.6839 7.1013 19.7239 5.8533Z" fill="black"/>
</svg>
