<svg width="48" height="48" viewBox="0 0 48 48" xmlns="http://www.w3.org/2000/svg">
  <circle cx="24" cy="24" r="23" fill="#FFFFFF" stroke="#F6B1C0" stroke-width="2"/>
  <path d="M34 24.3c0-.7-.1-1.3-.2-1.9H24v3.7h5.6a4.8 4.8 0 01-2 3.1v2.6h3.2c1.9-1.7 3-4.1 3-7.5z" fill="#EA4335"/>
  <path d="M24 35c2.7 0 5-1 6.7-2.7l-3.2-2.6c-.9.6-2 .9-3.5.9-2.7 0-4.9-1.8-5.7-4.2h-3.3v2.7A11 11 0 0024 35z" fill="#34A853"/>
  <path d="M18.3 26.4a6.6 6.6 0 010-4.1v-2.7h-3.3a11 11 0 000 9.5l3.3-2.7z" fill="#FBBC05"/>
  <path d="M24 17.5c1.5 0 2.8.5 3.8 1.5l2.8-2.8A11 11 0 0013.2 19l3.3 2.7c.8-2.4 3-4.2 5.7-4.2z" fill="#4285F4"/>
</svg>

