<svg width="32" height="32" viewBox="0 0 32 32" fill="none" xmlns="http://www.w3.org/2000/svg">
<path d="M18.7813 14.0648C18.2811 13.9771 17.7671 14.0113 17.283 14.1644C16.7988 14.3176 16.3587 14.5852 16 14.9447C15.4421 14.3781 14.6883 14.0468 13.8935 14.019C13.0988 13.9912 12.3237 14.269 11.7276 14.7953C11.3592 15.1209 11.0607 15.5178 10.85 15.962C10.6393 16.4062 10.5208 16.8885 10.5016 17.3798C10.4824 17.871 10.5629 18.3611 10.7383 18.8204C10.9136 19.2797 11.1803 19.6987 11.522 20.0521L14.1568 23.1117C14.3808 23.3836 14.6623 23.6025 14.9809 23.7528C15.2995 23.9032 15.6475 23.9811 15.9998 23.9811C16.3521 23.9811 16.7001 23.9031 17.0187 23.7528C17.3373 23.6025 17.6188 23.3835 17.8428 23.1116L20.4776 20.0521C22.3917 18.0561 21.43 14.5626 18.7813 14.0648ZM19.7198 19.3998L17.085 22.4594C16.9529 22.6192 16.7871 22.7478 16.5995 22.8361C16.4119 22.9244 16.2071 22.9702 15.9998 22.9702C15.7924 22.9702 15.5876 22.9244 15.4 22.8361C15.2125 22.7478 15.0467 22.6192 14.9146 22.4594L12.2798 19.3998C10.6804 17.5363 11.7153 15.1499 13.7758 15.012C14.1366 15.0283 14.4892 15.1244 14.8083 15.2934C15.1274 15.4625 15.405 15.7003 15.6211 15.9896C15.6695 16.0418 15.7281 16.0835 15.7933 16.1119C15.8585 16.1404 15.9289 16.1551 16 16.1551C16.0712 16.1551 16.1416 16.1404 16.2068 16.1119C16.272 16.0835 16.3306 16.0418 16.3789 15.9896C18.543 13.3571 22.0941 16.6623 19.7198 19.3998Z" fill="#96435D"/>
<path d="M29.6455 13.6704L17.6616 3.39892C17.2003 2.99928 16.6104 2.7793 16 2.7793C15.3896 2.7793 14.7997 2.99928 14.3384 3.39892L2.35451 13.6704C2.20051 13.8066 2.0913 13.9862 2.04121 14.1856C1.99112 14.385 2.0025 14.5949 2.07386 14.7877C2.14521 14.9805 2.2732 15.1472 2.44103 15.266C2.60885 15.3847 2.80866 15.45 3.01423 15.4531H6.00344V24.9175C6.00475 26.0572 6.4581 27.1498 7.26402 27.9556C8.06993 28.7614 9.1626 29.2147 10.3023 29.2158H21.6978C22.8374 29.2147 23.9301 28.7614 24.736 27.9556C25.5419 27.1498 25.9953 26.0572 25.9966 24.9175V15.4531H28.9859C29.1914 15.45 29.3912 15.3848 29.5591 15.266C29.7269 15.1472 29.8549 14.9805 29.9262 14.7877C29.9976 14.5949 30.0089 14.385 29.9589 14.1856C29.9088 13.9862 29.7995 13.8066 29.6455 13.6704ZM28.9858 14.4531H25.4966C25.4309 14.4531 25.3659 14.466 25.3052 14.4911C25.2445 14.5162 25.1894 14.5531 25.143 14.5995C25.0965 14.6459 25.0597 14.7011 25.0346 14.7617C25.0095 14.8224 24.9966 14.8875 24.9966 14.9531V24.9175C24.9955 25.792 24.6476 26.6304 24.0292 27.2488C23.4108 27.8671 22.5723 28.2149 21.6978 28.2158H10.3023C9.42773 28.2149 8.58927 27.8671 7.97083 27.2488C7.35239 26.6304 7.00448 25.792 7.00343 24.9175V14.9531C7.00347 14.8875 6.99056 14.8224 6.96545 14.7617C6.94033 14.7011 6.90351 14.6459 6.85707 14.5995C6.81063 14.5531 6.7555 14.5162 6.69482 14.4911C6.63414 14.466 6.5691 14.4531 6.50343 14.4531L3.00538 14.4292L14.9888 4.1577C15.2697 3.91486 15.6287 3.78123 16 3.78123C16.3714 3.78123 16.7303 3.91486 17.0112 4.1577L28.9946 14.4292L28.9858 14.4531Z" fill="#96435D"/>
</svg>
