<svg width="32" height="32" viewBox="0 0 32 32" fill="none" xmlns="http://www.w3.org/2000/svg">
<path d="M5.25313 14.2096C5.25313 17.203 8.21869 20.6219 9.98756 22.3948C10.8337 23.235 10.5541 24.246 10.607 24.7058C10.607 24.9143 10.776 25.0832 10.9844 25.0832H19.2733C19.4818 25.0832 19.6507 24.9142 19.6507 24.7058C19.7023 24.2679 19.4266 23.2384 20.2708 22.3938C22.0398 20.6248 25.0076 17.2091 25.0076 14.2095C25.0076 9.53433 19.5811 7.00252 15.9998 9.87027C15.0371 9.10252 13.8324 8.65945 12.5455 8.65945C12.1317 8.65945 11.9142 8.69564 11.6832 8.73139C11.4329 8.68214 11.0433 8.65945 10.8031 8.65945C7.74288 8.65952 5.25313 11.1493 5.25313 14.2096ZM16 19.5344C15.2774 19.144 13.8606 18.1738 13.8606 17.1824C13.8606 16.5587 14.3681 16.0512 14.9918 16.0512C15.2714 16.0512 15.5399 16.1541 15.7474 16.3411C15.8911 16.4703 16.109 16.4703 16.2526 16.3411C16.4602 16.1541 16.7288 16.0512 17.0088 16.0512C17.6322 16.0512 18.1394 16.5587 18.1394 17.1824C18.1394 18.1738 16.7226 19.144 16 19.5344ZM15.7467 10.6453C15.8904 10.7753 16.1091 10.7753 16.2529 10.6456C19.2819 7.91114 24.2529 10.0355 24.2528 14.2096C24.2528 17.039 21.0948 20.5025 19.7371 21.8601C18.7071 22.8902 18.9244 24.148 18.8958 24.3283H16.3775V20.1866C17.0182 19.835 18.8944 18.6788 18.8944 17.1823C18.8944 16.1423 18.0485 15.2962 17.0089 15.2962C16.6488 15.2962 16.2998 15.3985 16.0001 15.5885C15.7003 15.3985 15.3518 15.2962 14.9918 15.2962C13.9518 15.2962 13.1057 16.1422 13.1057 17.1823C13.1057 18.6788 14.9819 19.835 15.6226 20.1866V24.3283C15.5027 24.3283 12.9885 24.3283 13.1042 24.3283V23.8966C13.1042 23.137 12.7976 22.3948 12.2629 21.8601C10.9053 20.5025 7.74731 17.039 7.74731 14.2096C7.74731 10.0867 12.6793 7.86758 15.7467 10.6453ZM9.42612 9.62283C7.95075 10.6303 6.99237 12.3271 6.99237 14.2096C6.99237 17.2091 9.96012 20.6248 11.7291 22.3939C12.1233 22.7881 12.3492 23.3358 12.3492 23.8966V24.3283H11.3619C11.3315 24.1325 11.5572 22.8896 10.5207 21.8604C9.16394 20.5006 6.008 17.0328 6.008 14.2095C6.00794 12.0443 7.45606 10.2152 9.42612 9.62283Z" fill="#96435D"/>
<path d="M11.908 26.6313H20.092C20.3005 26.6313 20.4694 26.4623 20.4694 26.2539C20.4694 26.0454 20.3004 25.8765 20.092 25.8765H11.908C11.6995 25.8765 11.5306 26.0455 11.5306 26.2539C11.5306 26.4624 11.6995 26.6313 11.908 26.6313Z" fill="#96435D"/>
<path d="M11.908 27.9007H13.1568L12.8715 28.9419C12.8056 29.1824 12.9873 29.4191 13.2356 29.4191H13.9495V29.4256C13.9495 30.5562 14.8694 31.4759 16 31.4759C17.1306 31.4759 18.0505 30.5562 18.0505 29.4256V29.4191H18.7644C19.0128 29.4191 19.1944 29.1823 19.1285 28.9419L18.8432 27.9007H20.092C20.3005 27.9007 20.4694 27.7317 20.4694 27.5233C20.4694 27.3148 20.3004 27.1458 20.092 27.1458H18.3501C18.3495 27.1458 18.3489 27.1455 18.3484 27.1455H13.6517C13.6511 27.1455 13.6505 27.1458 13.6499 27.1458H11.9081C11.6996 27.1458 11.5306 27.3148 11.5306 27.5233C11.5306 27.7318 11.6995 27.9007 11.908 27.9007ZM17.2956 29.4256C17.2956 30.1398 16.7143 30.721 16 30.721C15.2856 30.721 14.7044 30.1398 14.7044 29.4256V29.4191H17.2956V29.4256H17.2956ZM18.2696 28.6642C17.2887 28.6642 14.7197 28.6642 13.7304 28.6642L13.9396 27.9008H18.0604L18.2696 28.6642Z" fill="#96435D"/>
<path d="M16.3095 4.24023V0.901852C16.3095 0.693352 16.1405 0.524414 15.9321 0.524414C15.7236 0.524414 15.5546 0.693414 15.5546 0.901852V4.24029C15.5546 4.44879 15.7236 4.61773 15.9321 4.61773C16.1405 4.61773 16.3095 4.44873 16.3095 4.24023Z" fill="#96435D"/>
<path d="M10.3316 6.18808C10.3957 6.18808 10.4606 6.17189 10.52 6.13764C10.7005 6.03326 10.7624 5.80233 10.6581 5.62189L8.98894 2.73083C8.88469 2.54976 8.6535 2.4887 8.47331 2.59251C8.29281 2.69689 8.23094 2.92783 8.33519 3.10826L10.0044 5.99933C10.0743 6.12051 10.2012 6.18808 10.3316 6.18808Z" fill="#96435D"/>
<path d="M6.45463 9.64418L3.56356 7.97512C3.38325 7.87162 3.15219 7.93268 3.04794 8.11343C2.94369 8.29393 3.00563 8.52481 3.18606 8.62918L6.07713 10.2982C6.13656 10.3324 6.20144 10.3487 6.26556 10.3487C6.39587 10.3487 6.52288 10.2812 6.59275 10.1599C6.69706 9.9795 6.63513 9.74856 6.45463 9.64418Z" fill="#96435D"/>
<path d="M1.10981 15.6064C1.10981 15.8149 1.27881 15.9839 1.48725 15.9839H4.8255C5.034 15.9839 5.20294 15.8149 5.20294 15.6064C5.20294 15.3979 5.03394 15.229 4.8255 15.229H1.48725C1.27881 15.229 1.10981 15.3979 1.10981 15.6064Z" fill="#96435D"/>
<path d="M26.797 15.6064C26.797 15.8149 26.966 15.9839 27.1744 15.9839H30.5127C30.7212 15.9839 30.8901 15.8149 30.8901 15.6064C30.8901 15.3979 30.7211 15.229 30.5127 15.229H27.1744C26.9659 15.229 26.797 15.3979 26.797 15.6064Z" fill="#96435D"/>
<path d="M28.4531 8.03685L25.562 9.70591C25.3815 9.81029 25.3196 10.0412 25.4239 10.2217C25.4938 10.3429 25.6207 10.4104 25.7511 10.4104C25.8152 10.4104 25.8801 10.3942 25.9395 10.36L28.8306 8.69091C29.0111 8.58654 29.0729 8.3556 28.9687 8.17516C28.8644 7.9941 28.6332 7.93304 28.4531 8.03685Z" fill="#96435D"/>
<path d="M21.7306 6.29578C21.8609 6.29578 21.9879 6.22828 22.0578 6.10703L23.7269 3.21597C23.8312 3.03547 23.7692 2.80459 23.5888 2.70022C23.4088 2.59672 23.1776 2.65778 23.0732 2.83853L21.4039 5.72959C21.2997 5.91009 21.3616 6.14097 21.5421 6.24534C21.6015 6.27953 21.6664 6.29578 21.7306 6.29578Z" fill="#96435D"/>
</svg>
