<svg width="32" height="30" viewBox="0 0 32 30" fill="none" xmlns="http://www.w3.org/2000/svg">
<path d="M8.69948 11.1684C8.73455 11.4197 8.97735 11.6035 9.22866 11.5679L18.8008 10.2312C19.0573 10.1954 19.2362 9.95852 19.2004 9.70202L18.5221 4.84447C18.4869 4.59191 18.2457 4.409 17.9929 4.44494L8.42066 5.78162C8.16779 5.81694 7.98581 6.05787 8.02113 6.31081L8.69948 11.1684ZM17.6583 5.43848L18.2068 9.36738L9.56336 10.5743L9.01474 6.64545L17.6583 5.43848Z" fill="#96435D"/>
<path d="M10.919 24.146C10.9406 24.146 10.9625 24.1445 10.9844 24.1415L20.5567 22.8048C20.8132 22.769 20.992 22.5321 20.9562 22.2756C20.9205 22.0191 20.6831 21.8406 20.427 21.8761L10.8548 23.2128C10.2937 23.291 10.3532 24.146 10.919 24.146Z" fill="#96435D"/>
<path d="M30.248 0.97341C28.5766 -0.00968982 26.3629 0.566379 25.3811 2.23526L22.9581 6.35458L22.5265 3.26343C22.3871 2.26527 21.8646 1.37913 21.0553 0.768113C20.246 0.157161 19.2508 -0.102711 18.2524 0.0368209L9.06857 1.31918C8.81207 1.35493 8.63321 1.59186 8.66904 1.84836C8.70479 2.10486 8.94129 2.2834 9.19822 2.24789L18.3821 0.965471C19.1321 0.860697 19.8808 1.05643 20.4903 1.51647C21.0998 1.97651 21.493 2.64304 21.5978 3.39309L22.193 7.65537L19.927 11.5078C19.642 11.9922 19.3951 12.4975 19.1862 13.0177L9.61769 14.3538C9.01849 14.4374 9.14871 15.3656 9.74734 15.2824L18.8385 14.013C18.6324 14.7052 18.4923 15.4166 18.4197 16.1353L10.0301 17.3068C9.4309 17.3904 9.56112 18.3187 10.1598 18.2355L18.3635 17.0899C18.3529 17.727 18.3015 18.5391 18.6123 19.119L10.4424 20.2599C9.84318 20.3435 9.9734 21.2717 10.572 21.1885L19.6623 19.9192C20.4078 20.0923 21.159 19.6272 21.7869 19.2768C22.4437 18.9101 23.0638 18.4779 23.636 17.9897L24.3966 23.4367C24.5013 24.1868 24.3057 24.9356 23.8456 25.545C23.3855 26.1544 22.7191 26.5478 21.969 26.6525L8.93641 28.4723C7.38049 28.6892 5.93797 27.6006 5.72074 26.0447L5.61077 25.2571L6.36326 25.152C8.45592 24.8599 7.97707 21.426 5.88371 21.7176L5.13123 21.8227L4.91099 20.2456L5.66348 20.1405C7.7602 19.8478 7.27272 16.4144 5.18393 16.7061L4.43144 16.8112L4.21121 15.2342L4.96363 15.1291C7.06036 14.8363 6.57293 11.4037 4.48408 11.6947L3.7316 11.7998L3.51136 10.2227L4.26384 10.1176C6.36057 9.82487 5.87315 6.39234 3.7843 6.68321L3.03181 6.7883L2.92185 6.00075C2.81714 5.25064 3.01281 4.5019 3.47291 3.89245C3.93295 3.28306 4.59948 2.88972 5.34953 2.78501L7.24846 2.51983C7.50496 2.48407 7.68381 2.24714 7.64799 1.99064C7.61217 1.73415 7.3753 1.55529 7.11881 1.59111L5.21987 1.8563C4.22177 1.99564 3.33557 2.51808 2.72455 3.32745C2.11354 4.13676 1.85379 5.13217 1.9932 6.13034L2.10316 6.91789L1.35074 7.02298C-0.737863 7.31455 -0.269256 10.7502 1.83029 10.4574L2.58271 10.3523L2.80295 11.9294L2.05046 12.0344C-0.045017 12.327 0.439719 15.7604 2.53001 15.4688L3.28249 15.3638L3.50273 16.9408L2.75031 17.0459C0.65483 17.3385 1.1395 20.7718 3.22986 20.4803L3.98234 20.3752L4.20258 21.9523L3.45009 22.0574C1.35462 22.3499 1.83929 25.7833 3.92964 25.4918L4.68213 25.3867L4.79209 26.1743C5.05621 28.0655 6.68202 29.4378 8.53988 29.4376C8.71348 29.4376 8.88946 29.4256 9.06613 29.4009L22.0987 27.5811C23.0968 27.4417 23.983 26.9193 24.594 26.1099C25.205 25.3006 25.4648 24.3052 25.3253 23.307L24.4726 17.2002C25.0775 16.569 25.611 15.8687 26.0556 15.1127L31.5099 5.84021C32.5037 4.15057 31.9376 1.96732 30.248 0.97341ZM1.70057 9.52899C0.815617 9.65164 0.593191 8.07591 1.48033 7.95194L3.91395 7.61211C4.80097 7.48865 5.01858 9.06557 4.13419 9.18916L1.70057 9.52899ZM2.40035 14.5404C1.51315 14.6637 1.29579 13.0869 2.18012 12.9633L4.61374 12.6235C5.50075 12.5 5.7183 14.077 4.83391 14.2006L2.40035 14.5404ZM3.10014 19.5518C2.21294 19.6749 1.99557 18.0983 2.87996 17.9747L5.31358 17.6349C6.2006 17.5114 6.41821 19.0884 5.53382 19.212L3.10014 19.5518ZM3.79992 24.5632C2.91272 24.6861 2.69542 23.1097 3.57975 22.9861L6.01337 22.6463C6.89888 22.5231 7.12081 24.0994 6.23361 24.2233L3.79992 24.5632ZM20.2731 18.971C20.0799 19.0513 19.8658 19.0367 19.6854 18.9306C19.505 18.8245 19.388 18.6444 19.3644 18.4365C19.3069 17.9303 19.288 17.4209 19.3058 16.9132L21.633 18.2821C21.1979 18.5442 20.7435 18.7752 20.2731 18.971ZM22.4959 17.7016L19.3939 15.8769C19.5336 14.8433 19.8268 13.8311 20.2647 12.883L24.6895 15.4857C24.0737 16.329 23.3314 17.0772 22.4959 17.7016ZM30.7016 5.36479L25.2474 14.6373C25.2345 14.6592 25.2211 14.6808 25.208 14.7026L20.6972 12.0493C20.71 12.0273 20.7224 12.0051 20.7352 11.9831L26.1894 2.71062C26.9122 1.48178 28.5425 1.05799 29.7725 1.78166C31.0166 2.51345 31.4334 4.12082 30.7016 5.36479Z" fill="#96435D"/>
</svg>
