<svg width="24" height="24" viewBox="0 0 24 24" fill="none" xmlns="http://www.w3.org/2000/svg">
<path d="M20.5013 2.54455H17.9173V0.66722C17.9173 0.317887 17.6107 -0.0154463 17.2507 0.000553689C17.0749 0.00396712 16.9073 0.0753008 16.783 0.199593C16.6587 0.323885 16.5874 0.491478 16.584 0.66722V2.54455H7.25067V0.66722C7.25067 0.317887 6.944 -0.0154463 6.584 0.000553689C6.40826 0.00396712 6.24066 0.0753008 6.11637 0.199593C5.99208 0.323885 5.92075 0.491478 5.91733 0.66722V2.54455H3.33333C2.4496 2.54561 1.60237 2.89714 0.97748 3.52203C0.352588 4.14693 0.00105857 4.99416 0 5.87789V20.5446C0 22.3832 1.496 23.8779 3.33333 23.8779H20.5C22.3387 23.8779 23.8333 22.3832 23.8333 20.5446V5.87789C23.8333 4.99406 23.4823 4.14642 22.8575 3.52134C22.2327 2.89625 21.3852 2.54491 20.5013 2.54455ZM3.33333 3.87789H5.91733V4.66722C5.91733 5.01655 6.224 5.34989 6.584 5.33389C6.94533 5.31789 7.25067 5.04055 7.25067 4.66722V3.87789H16.584V4.66722C16.584 5.01655 16.8907 5.34989 17.2507 5.33389C17.612 5.31789 17.9173 5.04055 17.9173 4.66722V3.87789H20.5C21.6027 3.87789 22.5 4.77522 22.5 5.87789V7.98989H1.33333V5.87789C1.33333 4.77522 2.23067 3.87789 3.33333 3.87789ZM20.5013 22.5446H3.33333C2.23067 22.5446 1.33333 21.6472 1.33333 20.5446V9.32322H22.5V20.5446C22.5 21.0748 22.2895 21.5833 21.9147 21.9583C21.5399 22.3333 21.0315 22.5442 20.5013 22.5446Z" fill="#96435D"/>
</svg>
