<svg width="22" height="23" viewBox="0 0 22 23" fill="none" xmlns="http://www.w3.org/2000/svg">
<path d="M10.6828 22.2565C8.45625 22.2519 6.64687 20.4472 6.64687 18.2206V17.48H14.7187V18.2206C14.7141 20.4472 12.9094 22.2519 10.6828 22.2565Z" fill="black"/>
<path d="M6.92812 17.7612H14.4375V18.2206C14.4375 20.2925 12.7547 21.9753 10.6828 21.9753C8.61094 21.9753 6.92812 20.2925 6.92812 18.2206V17.7612Z" fill="#FCA5A5"/>
<path d="M1.34531 18.9891C0.604687 18.9891 0 18.3844 0 17.6437V16.1437C0 15.6984 0.16875 15.2719 0.478125 14.9484L2.11875 13.2328C2.37187 12.9703 2.50781 12.6234 2.50781 12.2578V8.175C2.50781 3.66563 6.17344 0 10.6828 0C15.1922 0 18.8578 3.66563 18.8578 8.175V12.2578C18.8578 12.6187 18.9984 12.9703 19.2469 13.2328L20.8875 14.9484C21.1969 15.2672 21.3656 15.6984 21.3656 16.1437V17.6437C21.3656 18.3844 20.7609 18.9891 20.0203 18.9891H1.34531Z" fill="black"/>
<path d="M10.6828 18.708H20.0203C20.6062 18.708 21.0844 18.2299 21.0844 17.6439V16.1439C21.0844 15.7736 20.9391 15.4127 20.6859 15.1455L19.0453 13.4299C18.7453 13.1158 18.5766 12.6986 18.5766 12.2627V8.17988C18.5766 3.82051 15.0422 0.286133 10.6828 0.286133C6.32344 0.286133 2.78906 3.82051 2.78906 8.17988V12.2627C2.78906 12.6986 2.62031 13.1158 2.32031 13.4299L0.679687 15.1455C0.421875 15.4127 0.28125 15.7689 0.28125 16.1439V17.6439C0.28125 18.2299 0.759375 18.708 1.34531 18.708H10.6828Z" fill="#FCA5A5"/>
</svg>
