<svg width="28" height="28" viewBox="0 0 28 28" fill="none" xmlns="http://www.w3.org/2000/svg">
<path d="M2.66667 7.33333C2.66667 8.78373 3.09676 10.2016 3.90256 11.4075C4.70835 12.6135 5.85366 13.5534 7.19366 14.1084C8.53365 14.6635 10.0081 14.8087 11.4307 14.5258C12.8532 14.2428 14.1599 13.5444 15.1855 12.5188C16.211 11.4932 16.9095 10.1865 17.1924 8.764C17.4754 7.34147 17.3302 5.86698 16.7751 4.52699C16.2201 3.187 15.2801 2.04169 14.0742 1.23589C12.8682 0.430092 11.4504 0 10 0C8.05573 0.00211756 6.1917 0.775414 4.81689 2.15022C3.44208 3.52503 2.66878 5.38906 2.66667 7.33333ZM16 7.33333C16 8.52002 15.6481 9.68006 14.9888 10.6668C14.3295 11.6535 13.3925 12.4225 12.2961 12.8766C11.1997 13.3307 9.99334 13.4496 8.82946 13.218C7.66557 12.9865 6.59647 12.4151 5.75736 11.576C4.91824 10.7369 4.3468 9.66776 4.11529 8.50388C3.88378 7.33999 4.0026 6.13359 4.45672 5.03723C4.91085 3.94088 5.67988 3.0038 6.66658 2.34452C7.65327 1.68523 8.81331 1.33333 10 1.33333C11.5908 1.3351 13.1159 1.96781 14.2407 3.09264C15.3655 4.21748 15.9982 5.74258 16 7.33333ZM20 24.6667V27.3333C20 27.5101 19.9298 27.6797 19.8047 27.8047C19.6797 27.9298 19.5101 28 19.3333 28C19.1565 28 18.987 27.9298 18.8619 27.8047C18.7369 27.6797 18.6667 27.5101 18.6667 27.3333V24.6667C18.6667 23.429 18.175 22.242 17.2998 21.3668C16.4247 20.4917 15.2377 20 14 20H6C4.76232 20 3.57534 20.4917 2.70017 21.3668C1.825 22.242 1.33333 23.429 1.33333 24.6667V27.3333C1.33333 27.5101 1.2631 27.6797 1.13807 27.8047C1.01305 27.9298 0.843478 28 0.666667 28C0.489856 28 0.320286 27.9298 0.195262 27.8047C0.0702379 27.6797 0 27.5101 0 27.3333V24.6667C0 23.0754 0.632141 21.5492 1.75736 20.424C2.88258 19.2988 4.4087 18.6667 6 18.6667H14C15.5908 18.6684 17.1159 19.3011 18.2407 20.426C19.3655 21.5508 19.9982 23.0759 20 24.6667ZM23.3467 12.2667L23.3333 12.28L23.32 12.2667C22.8013 11.77 22.1108 11.4927 21.3927 11.4927C20.6745 11.4927 19.984 11.77 19.4653 12.2667C18.9569 12.7741 18.6698 13.4621 18.6665 14.1804C18.6633 14.8988 18.9442 15.5893 19.448 16.1013L22.844 19.7867C22.9064 19.8543 22.9822 19.9083 23.0665 19.9453C23.1509 19.9822 23.2419 20.0013 23.334 20.0013C23.4261 20.0013 23.5171 19.9822 23.6015 19.9453C23.6858 19.9083 23.7616 19.8543 23.824 19.7867L27.2 16.12C27.7099 15.6082 27.9963 14.9152 27.9963 14.1927C27.9963 13.4702 27.7099 12.7771 27.2 12.2653C26.6809 11.7702 25.9911 11.4941 25.2737 11.4943C24.5564 11.4946 23.8654 11.7712 23.3467 12.2667ZM26.24 15.2L23.3333 18.3507L20.4 15.1773C20.2054 14.9826 20.0729 14.7345 20.0192 14.4644C19.9656 14.1943 19.9933 13.9144 20.0988 13.6601C20.2042 13.4058 20.3828 13.1884 20.6118 13.0356C20.8408 12.8827 21.11 12.8012 21.3853 12.8013C21.5682 12.8006 21.7494 12.8363 21.9184 12.9064C22.0873 12.9764 22.2406 13.0794 22.3693 13.2093L22.8547 13.6947C22.9797 13.8196 23.1492 13.8899 23.326 13.8899C23.5028 13.8899 23.6723 13.8196 23.7973 13.6947L24.2827 13.208C24.5482 12.9552 24.9007 12.8142 25.2673 12.8142C25.6339 12.8142 25.9865 12.9552 26.252 13.208C26.3828 13.3391 26.4864 13.4948 26.5567 13.6661C26.627 13.8375 26.6627 14.021 26.6617 14.2062C26.6607 14.3914 26.623 14.5746 26.5509 14.7451C26.4787 14.9157 26.3722 15.0703 26.24 15.2Z" fill="#96435D"/>
</svg>
