<svg width="32" height="32" viewBox="0 0 32 32" fill="none" xmlns="http://www.w3.org/2000/svg">
<path d="M27.8701 5.40137C26.416 3.94727 24.4826 3.14648 22.4263 3.14648V4.08398C24.2322 4.08398 25.9302 4.78711 27.207 6.06421C27.7361 6.59351 28.1699 7.2002 28.4961 7.86768L29.3384 7.4563C28.9665 6.69531 28.4726 6.00391 27.8701 5.40137Z" fill="#96435D"/>
<path d="M30.1023 10.3325L29.167 10.3943C29.1767 10.5439 29.1819 10.6958 29.1819 10.8459C29.1819 10.9873 29.1775 11.1304 29.1687 11.271L30.1042 11.3293C30.1142 11.1692 30.1194 11.0066 30.1194 10.8459C30.1194 10.6753 30.1135 10.5027 30.1023 10.3325Z" fill="#96435D"/>
<path d="M29.717 8.37988L28.8284 8.67847C28.9209 8.95435 28.9966 9.23926 29.053 9.52539L29.9726 9.34424C29.9084 9.01855 29.8225 8.69409 29.717 8.37988Z" fill="#96435D"/>
<path d="M9.57446 3.12061C7.51782 3.12061 5.58447 3.92139 4.13037 5.37524C4.11279 5.39282 4.09546 5.4104 4.07812 5.42822L4.7478 6.08423C4.7627 6.06909 4.77759 6.05396 4.79297 6.03857C6.07031 4.76147 7.76831 4.05811 9.57446 4.05811V3.12061Z" fill="#96435D"/>
<path d="M2.8772 7.01538L3.69165 7.47974C3.83545 7.22729 3.9978 6.9812 4.17407 6.74878L3.42676 6.18262C3.22607 6.44751 3.04126 6.72754 2.8772 7.01538Z" fill="#96435D"/>
<path d="M1.875 10.8201H2.8125C2.8125 10.5312 2.83081 10.241 2.8667 9.95703L1.93652 9.83936C1.89575 10.1621 1.875 10.4922 1.875 10.8201Z" fill="#96435D"/>
<path d="M2.12549 8.86035L3.03247 9.09741C3.1062 8.81543 3.19922 8.53613 3.30884 8.26685L2.44067 7.91309C2.31567 8.22021 2.20947 8.53882 2.12549 8.86035Z" fill="#96435D"/>
<path d="M12.1562 12.2061H16.7187V13.1436H12.1562V12.2061Z" fill="#96435D"/>
<path d="M17.6562 12.2061H19.8437V13.1436H17.6562V12.2061Z" fill="#96435D"/>
<path d="M14.75 14.1436H15.6875V15.0811H14.75V14.1436Z" fill="#96435D"/>
<path d="M10.6875 14.1436H13.8125V15.0811H10.6875V14.1436Z" fill="#96435D"/>
<path d="M16.625 14.1436H21.3125V15.0811H16.625V14.1436Z" fill="#96435D"/>
<path d="M10.6875 16.0811H18.1875V17.0186H10.6875V16.0811Z" fill="#96435D"/>
<path d="M19.125 16.0811H21.3125V17.0186H19.125V16.0811Z" fill="#96435D"/>
<path d="M12.1562 18.0186H16.0937V18.9561H12.1562V18.0186Z" fill="#96435D"/>
<path d="M17.0312 18.0186H17.9687V18.9561H17.0312V18.0186Z" fill="#96435D"/>
<path d="M18.9062 18.0186H19.8437V18.9561H18.9062V18.0186Z" fill="#96435D"/>
<path d="M32 10.8279C31.9953 8.27734 30.9995 5.87939 29.196 4.07592C27.3923 2.27221 24.9944 1.27636 22.4438 1.27172C22.4377 1.27172 22.4319 1.27172 22.4258 1.27172C20.0354 1.27172 17.7766 2.14282 16.0146 3.7351C12.2617 0.31982 6.4292 0.4248 2.8042 4.0498C0.995849 5.85815 0 8.26245 0 10.8201C0 13.3774 0.995849 15.7817 2.8042 17.5901L16.0132 30.7988L29.5693 17.2424L29.5586 17.2327C31.1409 15.4697 32.0044 13.2141 32 10.8279ZM28.4924 16.9936L16.0129 29.4731L3.46728 16.9272C1.83594 15.2959 0.9375 13.1269 0.9375 10.8201C0.9375 8.51293 1.83594 6.34423 3.46728 4.71289C5.15088 3.02905 7.36279 2.18725 9.57446 2.18725C11.7861 2.18725 13.9978 3.02905 15.6816 4.71289L16.0273 5.02783L16.3435 4.71435C19.7107 1.37377 25.1789 1.38452 28.5329 4.73877C31.8869 8.09277 31.8979 13.561 28.5571 16.9282L28.4924 16.9936Z" fill="#96435D"/>
<path d="M21.2732 8.81514C21 8.59859 20.7117 8.3984 20.4143 8.21798C16.5085 5.8525 11.4065 7.10518 9.04052 11.0109C7.89453 12.9028 7.55395 15.1279 8.08129 17.2761C8.60888 19.4243 9.9414 21.2385 11.8332 22.3845C13.144 23.1784 14.6145 23.5859 16.1086 23.5859C16.7712 23.5859 17.4385 23.5058 18.0984 23.3437C20.2466 22.8161 22.0608 21.4836 23.2068 19.5918C24.6211 17.257 24.7944 14.4099 23.6858 11.925L25.7407 8.53243L21.2732 8.81514ZM22.7334 12.0996C23.8213 14.3513 23.6985 16.9704 22.405 19.1059C21.3887 20.7839 19.7798 21.9655 17.8747 22.4331C15.9697 22.9008 13.9968 22.5988 12.3188 21.5825C10.6411 20.5661 9.45947 18.9575 8.99169 17.0524C8.52416 15.1474 8.82617 13.1743 9.84252 11.4965C11.2217 9.21944 13.6499 7.95919 16.136 7.95919C17.4311 7.95919 18.7419 8.30123 19.9285 9.01998C20.2402 9.2087 20.5405 9.42257 20.8208 9.65523L20.9641 9.77389L24.0093 9.58126L22.6228 11.8706L22.7334 12.0996Z" fill="#96435D"/>
</svg>
