<svg width="27" height="27" viewBox="0 0 27 27" fill="none" xmlns="http://www.w3.org/2000/svg">
<path fill-rule="evenodd" clip-rule="evenodd" d="M14.084 1.6H12.5827L11.7227 5.03733L10.86 5.304C10.3573 5.4589 9.87028 5.66067 9.40533 5.90667L8.60667 6.32933L5.56667 4.50533L4.50533 5.568L6.32933 8.608L5.90667 9.40533C5.66022 9.87023 5.45799 10.3573 5.30267 10.86L5.03733 11.7227L1.6 12.5827V14.084L5.03733 14.944L5.304 15.8067C5.45778 16.3116 5.65867 16.7964 5.90667 17.2613L6.32933 18.06L4.50533 21.1L5.568 22.1613L8.608 20.3373L9.40533 20.76C9.87022 21.0071 10.3551 21.2084 10.86 21.364L11.7227 21.6293L12.5827 25.0667H14.084L14.944 21.6293L15.8067 21.3627C16.3094 21.2078 16.7964 21.006 17.2613 20.76L18.06 20.3373L21.1 22.1613L22.1613 21.0987L20.3373 18.0587L20.76 17.2613C21.0071 16.7964 21.2084 16.3116 21.364 15.8067L21.6293 14.944L25.0667 14.084V12.5827L21.6293 11.7227L21.3627 10.86C21.2078 10.3573 21.006 9.87028 20.76 9.40533L20.3373 8.60667L22.1613 5.56667L21.0987 4.50533L18.0587 6.32933L17.2613 5.90667C16.7964 5.66022 16.3094 5.45799 15.8067 5.30267L14.944 5.03733L14.084 1.6ZM18.0107 4.49333L20.4547 3.02667C20.7095 2.87382 21.0081 2.81048 21.3031 2.84671C21.598 2.88295 21.8724 3.01668 22.0827 3.22667L23.44 4.584C23.65 4.79427 23.7837 5.06866 23.82 5.36361C23.8562 5.65856 23.7928 5.95716 23.64 6.212L22.1733 8.656C22.4667 9.20711 22.7067 9.78489 22.8933 10.3893L25.6573 11.0813C25.9457 11.1536 26.2016 11.3201 26.3845 11.5544C26.5673 11.7887 26.6667 12.0774 26.6667 12.3747V14.292C26.6667 14.5892 26.5673 14.8779 26.3845 15.1123C26.2016 15.3466 25.9457 15.5131 25.6573 15.5853L22.8933 16.2773C22.7067 16.8818 22.4667 17.4596 22.1733 18.0107L23.64 20.4547C23.7928 20.7095 23.8562 21.0081 23.82 21.3031C23.7837 21.598 23.65 21.8724 23.44 22.0827L22.0827 23.44C21.8724 23.65 21.598 23.7837 21.3031 23.82C21.0081 23.8562 20.7095 23.7928 20.4547 23.64L18.0107 22.1733C17.4596 22.4667 16.8818 22.7067 16.2773 22.8933L15.5853 25.6573C15.5131 25.9457 15.3466 26.2016 15.1123 26.3845C14.8779 26.5673 14.5892 26.6667 14.292 26.6667H12.3747C12.0774 26.6667 11.7887 26.5673 11.5544 26.3845C11.3201 26.2016 11.1536 25.9457 11.0813 25.6573L10.3893 22.8933C9.79026 22.7082 9.20993 22.4671 8.656 22.1733L6.212 23.64C5.95716 23.7928 5.65856 23.8562 5.36361 23.82C5.06866 23.7837 4.79427 23.65 4.584 23.44L3.22667 22.0827C3.01668 21.8724 2.88295 21.598 2.84671 21.3031C2.81048 21.0081 2.87382 20.7095 3.02667 20.4547L4.49333 18.0107C4.19952 17.4567 3.95846 16.8764 3.77333 16.2773L1.00933 15.5853C0.721226 15.5132 0.465465 15.3469 0.282617 15.1128C0.0997693 14.8787 0.000304857 14.5903 0 14.2933V12.376C7.81391e-06 12.0788 0.0993362 11.79 0.282207 11.5557C0.465078 11.3214 0.721004 11.1549 1.00933 11.0827L3.77333 10.3907C3.96 9.78622 4.2 9.20844 4.49333 8.65733L3.02667 6.21333C2.87382 5.95849 2.81048 5.65989 2.84671 5.36494C2.88295 5.06999 3.01668 4.7956 3.22667 4.58533L4.584 3.22667C4.79427 3.01668 5.06866 2.88295 5.36361 2.84671C5.65856 2.81048 5.95716 2.87382 6.212 3.02667L8.656 4.49333C9.20711 4.2 9.78489 3.96 10.3893 3.77333L11.0813 1.00933C11.1535 0.721226 11.3198 0.465465 11.5539 0.282617C11.7879 0.0997693 12.0763 0.000304857 12.3733 0H14.2907C14.5879 7.81391e-06 14.8766 0.0993362 15.1109 0.282207C15.3453 0.465078 15.5118 0.721004 15.584 1.00933L16.276 3.77333C16.8804 3.96 17.4582 4.2 18.0093 4.49333H18.0107ZM13.3333 17.0667C14.3235 17.0667 15.2731 16.6733 15.9732 15.9732C16.6733 15.2731 17.0667 14.3235 17.0667 13.3333C17.0667 12.3432 16.6733 11.3936 15.9732 10.6935C15.2731 9.99333 14.3235 9.6 13.3333 9.6C12.3432 9.6 11.3936 9.99333 10.6935 10.6935C9.99333 11.3936 9.6 12.3432 9.6 13.3333C9.6 14.3235 9.99333 15.2731 10.6935 15.9732C11.3936 16.6733 12.3432 17.0667 13.3333 17.0667ZM13.3333 18.6667C11.9188 18.6667 10.5623 18.1048 9.5621 17.1046C8.5619 16.1044 8 14.7478 8 13.3333C8 11.9188 8.5619 10.5623 9.5621 9.5621C10.5623 8.5619 11.9188 8 13.3333 8C14.7478 8 16.1044 8.5619 17.1046 9.5621C18.1048 10.5623 18.6667 11.9188 18.6667 13.3333C18.6667 14.7478 18.1048 16.1044 17.1046 17.1046C16.1044 18.1048 14.7478 18.6667 13.3333 18.6667Z" fill="#96435D"/>
</svg>
