<svg width="32" height="32" viewBox="0 0 32 32" fill="none" xmlns="http://www.w3.org/2000/svg">
<g clip-path="url(#clip0_28_222)">
<path d="M27 22C26.8674 22 26.7402 21.9473 26.6464 21.8536C26.5527 21.7598 26.5 21.6326 26.5 21.5V20.5H7.5C7.36739 20.5 7.24021 20.4473 7.14645 20.3536C7.05268 20.2598 7 20.1326 7 20C7 19.8674 7.05268 19.7402 7.14645 19.6464C7.24021 19.5527 7.36739 19.5 7.5 19.5H27C27.1326 19.5 27.2598 19.5527 27.3536 19.6464C27.4473 19.7402 27.5 19.8674 27.5 20V21.5C27.5 21.6326 27.4473 21.7598 27.3536 21.8536C27.2598 21.9473 27.1326 22 27 22Z" fill="#96435D"/>
<path d="M27 32.5H6C5.86739 32.5 5.74021 32.4473 5.64645 32.3536C5.55268 32.2598 5.5 32.1326 5.5 32V20C5.5 19.8674 5.55268 19.7402 5.64645 19.6464C5.74021 19.5527 5.86739 19.5 6 19.5C6.13261 19.5 6.25979 19.5527 6.35355 19.6464C6.44732 19.7402 6.5 19.8674 6.5 20V31.5H26.5V23C26.5 22.8674 26.5527 22.7402 26.6464 22.6464C26.7402 22.5527 26.8674 22.5 27 22.5C27.1326 22.5 27.2598 22.5527 27.3536 22.6464C27.4473 22.7402 27.5 22.8674 27.5 23V32C27.5 32.1326 27.4473 32.2598 27.3536 32.3536C27.2598 32.4473 27.1326 32.5 27 32.5Z" fill="#96435D"/>
<path d="M6 20.5C5.95905 20.4999 5.91825 20.4949 5.8785 20.485C5.74989 20.4529 5.6393 20.371 5.57104 20.2574C5.50279 20.1437 5.48245 20.0076 5.5145 19.879L7.5145 11.879C7.54151 11.7707 7.60399 11.6746 7.69197 11.6059C7.77995 11.5372 7.88839 11.4999 8 11.5H10C10.1326 11.5 10.2598 11.5527 10.3536 11.6464C10.4473 11.7402 10.5 11.8674 10.5 12C10.5 12.1326 10.4473 12.2598 10.3536 12.3536C10.2598 12.4473 10.1326 12.5 10 12.5H8.3905L6.485 20.121C6.45801 20.2292 6.39562 20.3253 6.30773 20.394C6.21985 20.4626 6.11153 20.5 6 20.5Z" fill="#96435D"/>
<path d="M27 20.5H7.5C7.36739 20.5 7.24021 20.4473 7.14645 20.3536C7.05268 20.2598 7 20.1326 7 20C7 19.8674 7.05268 19.7402 7.14645 19.6464C7.24021 19.5527 7.36739 19.5 7.5 19.5H26.3595L25.765 17.121C25.7363 16.9936 25.7586 16.86 25.8272 16.7488C25.8957 16.6377 26.0051 16.5577 26.1318 16.5261C26.2585 16.4945 26.3925 16.5137 26.5053 16.5797C26.618 16.6456 26.7005 16.753 26.735 16.879L27.485 19.879C27.5034 19.9527 27.5047 20.0296 27.4889 20.1039C27.4732 20.1782 27.4407 20.2479 27.3939 20.3078C27.3472 20.3676 27.2874 20.416 27.2192 20.4493C27.1509 20.4827 27.0759 20.5 27 20.5Z" fill="#96435D"/>
<path d="M20 12.5H18C17.8674 12.5 17.7402 12.4473 17.6464 12.3536C17.5527 12.2598 17.5 12.1326 17.5 12C17.5 11.8674 17.5527 11.7402 17.6464 11.6464C17.7402 11.5527 17.8674 11.5 18 11.5H20C20.1326 11.5 20.2598 11.5527 20.3536 11.6464C20.4473 11.7402 20.5 11.8674 20.5 12C20.5 12.1326 20.4473 12.2598 20.3536 12.3536C20.2598 12.4473 20.1326 12.5 20 12.5Z" fill="#96435D"/>
<path d="M27 20.5002C26.8937 20.5002 26.7901 20.4664 26.7043 20.4035C26.6186 20.3407 26.5551 20.2521 26.5231 20.1507C26.4911 20.0493 26.4922 19.9403 26.5264 19.8396C26.5605 19.7389 26.6259 19.6517 26.713 19.5907L31.388 16.3177L28.778 9.79172L27.8 10.5252C27.7475 10.5646 27.6877 10.5933 27.6241 10.6096C27.5605 10.6259 27.4943 10.6295 27.4293 10.6202C27.3643 10.6109 27.3017 10.5889 27.2452 10.5555C27.1887 10.522 27.1394 10.4778 27.1 10.4252C27.0606 10.3727 27.0319 10.3129 27.0156 10.2493C26.9993 10.1857 26.9957 10.1195 27.005 10.0545C27.0143 9.98951 27.0363 9.92697 27.0698 9.87048C27.1032 9.81398 27.1475 9.76462 27.2 9.72522L28.7 8.60022C28.7614 8.55412 28.8325 8.52276 28.908 8.50859C28.9834 8.49442 29.0611 8.49781 29.1351 8.51851C29.209 8.5392 29.2772 8.57664 29.3343 8.62792C29.3914 8.6792 29.436 8.74295 29.4645 8.81422L32.4645 16.3142C32.5064 16.419 32.5116 16.5349 32.4793 16.643C32.447 16.7511 32.379 16.8451 32.2865 16.9097L27.2865 20.4097C27.2026 20.4687 27.1025 20.5003 27 20.5002Z" fill="#96435D"/>
<path d="M5.7135 20.4097L0.713499 16.9097C0.620985 16.8451 0.553046 16.7511 0.52073 16.643C0.488413 16.5349 0.493618 16.419 0.535499 16.3142L3.5355 8.81422C3.56402 8.74295 3.60858 8.6792 3.6657 8.62792C3.72283 8.57664 3.791 8.5392 3.86492 8.51851C3.93885 8.49781 4.01655 8.49442 4.092 8.50859C4.16745 8.52276 4.23862 8.55412 4.3 8.60022L8.3 11.6002L7.7 12.4002L4.222 9.79172L1.6115 16.3177L6.2865 19.5907L5.7135 20.4097Z" fill="#96435D"/>
<path d="M18.5 32.5H14.5C14.3674 32.5 14.2402 32.4473 14.1464 32.3536C14.0527 32.2598 14 32.1326 14 32V20C14 19.8674 14.0527 19.7402 14.1464 19.6464C14.2402 19.5527 14.3674 19.5 14.5 19.5H18.5C18.6326 19.5 18.7598 19.5527 18.8536 19.6464C18.9473 19.7402 19 19.8674 19 20V32C19 32.1326 18.9473 32.2598 18.8536 32.3536C18.7598 32.4473 18.6326 32.5 18.5 32.5ZM15 31.5H18V20.5H15V31.5Z" fill="#96435D"/>
<path d="M23.5345 16.9094C23.4608 16.9087 23.3882 16.8916 23.322 16.8594C21.964 16.2199 20.472 13.5969 20.707 12.2594C20.8003 11.6991 21.0809 11.187 21.503 10.8069C21.7119 10.6143 21.962 10.472 22.2343 10.3908C22.5065 10.3096 22.7938 10.2917 23.074 10.3384C23.5991 10.4411 24.0836 10.6928 24.4695 11.0634C24.9587 10.8456 25.5003 10.7734 26.0295 10.8554C26.3095 10.9062 26.5741 11.0206 26.803 11.1896C27.0319 11.3586 27.219 11.5778 27.35 11.8304C27.6179 12.3311 27.708 12.9079 27.6055 13.4664C27.4837 13.9715 27.2351 14.4372 26.883 14.8194C26.8419 14.8723 26.7905 14.9165 26.7319 14.9491C26.6734 14.9818 26.6089 15.0024 26.5422 15.0096C26.4756 15.0169 26.4081 15.0106 26.3439 14.9913C26.2797 14.972 26.2201 14.9399 26.1685 14.897C26.117 14.8542 26.0746 14.8014 26.0438 14.7418C26.0131 14.6822 25.9947 14.617 25.9896 14.5502C25.9846 14.4833 25.993 14.4161 26.0145 14.3526C26.036 14.2891 26.07 14.2305 26.1145 14.1804C26.3492 13.9279 26.5222 13.6244 26.62 13.2939C26.6824 12.9595 26.6308 12.614 26.4735 12.3124C26.4139 12.1922 26.3276 12.0872 26.2212 12.0056C26.1148 11.9239 25.991 11.8678 25.8595 11.8414C25.4353 11.7874 25.0053 11.8782 24.639 12.0989C24.5319 12.1684 24.4024 12.1946 24.2767 12.1722C24.151 12.1498 24.0386 12.0806 23.962 11.9784C23.6915 11.6473 23.3174 11.4169 22.9 11.3244C22.7672 11.3045 22.6315 11.3152 22.5035 11.3559C22.3755 11.3965 22.2585 11.466 22.1615 11.5589C21.9113 11.7894 21.7455 12.0971 21.6905 12.4329C21.55 13.2329 22.6355 15.3029 23.6225 15.8914C24.1985 15.7309 24.7331 15.4481 25.19 15.0624C25.2417 15.0218 25.3009 14.9918 25.3642 14.9741C25.4275 14.9564 25.4937 14.9514 25.5589 14.9592C25.6242 14.9671 25.6873 14.9877 25.7445 15.02C25.8018 15.0522 25.8522 15.0954 25.8928 15.1471C25.9333 15.1988 25.9633 15.258 25.981 15.3213C25.9987 15.3846 26.0038 15.4508 25.9959 15.5161C25.9881 15.5813 25.9674 15.6444 25.9352 15.7017C25.9029 15.7589 25.8597 15.8093 25.808 15.8499C25.1702 16.3895 24.4028 16.7538 23.5815 16.9069C23.566 16.9084 23.55 16.9094 23.5345 16.9094Z" fill="#96435D"/>
<path d="M27.117 5.94433C27.0885 5.94433 27.06 5.94433 27.032 5.94133C26.9423 5.93547 26.8558 5.90521 26.782 5.85383C26.105 5.38583 25.579 3.93533 25.828 3.22283C25.9482 2.8685 26.2031 2.57573 26.5375 2.40783C26.6711 2.34155 26.8166 2.30258 26.9655 2.29322C27.1144 2.28387 27.2636 2.3043 27.4045 2.35333C27.6337 2.43666 27.8394 2.57384 28.0045 2.75333C28.2459 2.71527 28.4929 2.7369 28.724 2.81633C29.035 2.94692 29.2819 3.19492 29.4111 3.50648C29.5403 3.81805 29.5413 4.168 29.414 4.48033C29.1755 5.16983 27.9405 5.94433 27.117 5.94433ZM27.04 3.29083C27.0163 3.29161 26.993 3.29777 26.972 3.30883C26.8766 3.36165 26.8051 3.44895 26.772 3.55283C26.7734 4.05267 26.9392 4.53815 27.244 4.93433C27.7285 4.8151 28.1602 4.53935 28.472 4.14983C28.536 3.96733 28.4835 3.79033 28.3955 3.75933C28.2677 3.72345 28.1316 3.73029 28.008 3.77883C27.8912 3.82781 27.7603 3.83149 27.641 3.78914C27.5216 3.7468 27.4223 3.66147 27.3625 3.54983C27.2951 3.43797 27.1939 3.35042 27.0735 3.29983C27.063 3.29484 27.0516 3.29179 27.04 3.29083Z" fill="#96435D"/>
<path d="M18.117 16.4443C18.0885 16.4443 18.06 16.4443 18.032 16.4413C17.9423 16.4355 17.8558 16.4052 17.782 16.3538C17.105 15.8858 16.579 14.4353 16.828 13.7228C16.9482 13.3685 17.2031 13.0757 17.5375 12.9078C17.6711 12.8415 17.8166 12.8026 17.9655 12.7932C18.1144 12.7839 18.2636 12.8043 18.4045 12.8533C18.6337 12.9367 18.8394 13.0738 19.0045 13.2533C19.2459 13.2155 19.4929 13.2371 19.724 13.3163C20.035 13.4469 20.2819 13.6949 20.4111 14.0065C20.5403 14.318 20.5413 14.668 20.414 14.9803C20.1755 15.6698 18.9405 16.4443 18.117 16.4443ZM18.04 13.7908C18.0163 13.7916 17.993 13.7978 17.972 13.8088C17.8766 13.8617 17.8051 13.9489 17.772 14.0528C17.7734 14.5527 17.9392 15.0382 18.244 15.4343C18.7285 15.3151 19.1602 15.0393 19.472 14.6498C19.536 14.4673 19.4835 14.2903 19.3955 14.2593C19.2677 14.2234 19.1316 14.2303 19.008 14.2788C18.891 14.3277 18.7599 14.331 18.6405 14.2883C18.5211 14.2456 18.422 14.1598 18.3625 14.0478C18.2951 13.936 18.1939 13.8484 18.0735 13.7978C18.0628 13.7935 18.0515 13.7912 18.04 13.7908Z" fill="#96435D"/>
<path d="M7.92701 9.39994C7.10751 9.39994 5.94151 8.80744 5.64701 8.19344C5.48566 7.89728 5.44767 7.54942 5.54129 7.22541C5.63491 6.9014 5.85257 6.62741 6.14701 6.46294C6.36799 6.35827 6.61125 6.30935 6.85551 6.32044C6.99952 6.12274 7.18926 5.96286 7.40851 5.85444C7.5433 5.79035 7.68947 5.75364 7.83855 5.74643C7.98763 5.73923 8.13666 5.76166 8.27701 5.81244C8.62816 5.94199 8.91403 6.20486 9.07251 6.54394C9.39901 7.22294 9.03751 8.72344 8.41701 9.26444C8.34913 9.32318 8.26679 9.36272 8.17851 9.37894C8.09552 9.3938 8.01131 9.40083 7.92701 9.39994ZM6.80301 7.31894C6.72681 7.31744 6.65121 7.33263 6.58151 7.36344C6.49751 7.40444 6.46501 7.58644 6.54851 7.76044C6.90127 8.11225 7.36041 8.3376 7.85451 8.40144C8.11364 7.9739 8.22486 7.47297 8.17101 6.97594C8.12651 6.87686 8.04637 6.79814 7.94651 6.75544C7.93032 6.74815 7.91276 6.74439 7.89501 6.74439C7.87725 6.74439 7.8597 6.74815 7.84351 6.75544C7.73012 6.82074 7.6398 6.91962 7.58501 7.03844C7.53981 7.15896 7.44987 7.2574 7.33392 7.31328C7.21797 7.36916 7.08493 7.37817 6.96251 7.33844C6.91028 7.32594 6.8567 7.32006 6.80301 7.32094V7.31894Z" fill="#96435D"/>
<path d="M11.927 17.3999C11.1075 17.3999 9.94151 16.8074 9.64701 16.1934C9.48566 15.8973 9.44767 15.5494 9.54129 15.2254C9.63491 14.9014 9.85257 14.6274 10.147 14.4629C10.3683 14.3592 10.6113 14.3103 10.8555 14.3204C10.9995 14.1227 11.1893 13.9629 11.4085 13.8544C11.5433 13.7904 11.6895 13.7536 11.8385 13.7464C11.9876 13.7392 12.1367 13.7617 12.277 13.8124C12.6282 13.942 12.914 14.2049 13.0725 14.5439C13.399 15.2234 13.0375 16.7234 12.417 17.2639C12.3493 17.323 12.2669 17.3627 12.1785 17.3789C12.0955 17.3936 12.0113 17.4006 11.927 17.3999ZM10.803 15.3189C10.7268 15.3174 10.6512 15.3326 10.5815 15.3634C10.4975 15.4044 10.465 15.5864 10.5485 15.7604C10.9012 16.1123 11.3604 16.3377 11.8545 16.4014C12.1136 15.9739 12.2249 15.473 12.171 14.9759C12.1265 14.8769 12.0464 14.7981 11.9465 14.7554C11.9304 14.748 11.9128 14.7441 11.895 14.7441C11.8772 14.7441 11.8597 14.748 11.8435 14.7554C11.7301 14.8207 11.6398 14.9196 11.585 15.0384C11.5398 15.159 11.4499 15.2574 11.3339 15.3133C11.218 15.3692 11.0849 15.3782 10.9625 15.3384C10.9103 15.3259 10.8567 15.3201 10.803 15.3209V15.3189Z" fill="#96435D"/>
<path d="M21.4035 9.72655C21.1471 9.73089 20.8915 9.69719 20.645 9.62655C20.5183 9.58743 20.4123 9.49958 20.3504 9.38233C20.2884 9.26507 20.2756 9.12801 20.3147 9.0013C20.3539 8.8746 20.4417 8.76862 20.559 8.70669C20.6762 8.64475 20.8133 8.63193 20.94 8.67105C21.79 8.93455 23.7325 8.25355 24.09 7.69105C24.235 7.46918 24.3013 7.2051 24.2785 6.94105C24.2723 6.84155 24.2434 6.74477 24.1941 6.65812C24.1448 6.57147 24.0764 6.49722 23.994 6.44105C23.7033 6.27677 23.3665 6.2133 23.036 6.26055C22.91 6.28538 22.7792 6.26075 22.6709 6.19177C22.5625 6.12279 22.4848 6.01475 22.454 5.89005C22.3576 5.57041 22.1574 5.29205 21.885 5.09905C21.8271 5.06505 21.7767 5.01973 21.7367 4.96582C21.6967 4.9119 21.668 4.85049 21.6523 4.78523C21.6365 4.71998 21.6341 4.65222 21.6451 4.586C21.6561 4.51979 21.6803 4.45646 21.7163 4.39981C21.7523 4.34315 21.7993 4.29433 21.8546 4.25624C21.9099 4.21815 21.9723 4.19159 22.038 4.17813C22.1038 4.16466 22.1716 4.16458 22.2374 4.17788C22.3032 4.19119 22.3656 4.2176 22.421 4.25555C22.7932 4.50019 23.0889 4.8449 23.274 5.25005C23.7177 5.2478 24.1532 5.36992 24.531 5.60255C24.7404 5.73781 24.9161 5.9192 25.0447 6.13283C25.1732 6.34646 25.2511 6.58666 25.2725 6.83505C25.3206 7.32486 25.2011 7.81649 24.9335 8.22955C24.4105 9.05005 22.6915 9.72655 21.4035 9.72655Z" fill="#96435D"/>
<path d="M18 10.9999C17.9005 11.0001 17.8032 10.9706 17.7206 10.9151C17.6379 10.8597 17.5737 10.7809 17.5361 10.6887C17.4985 10.5966 17.4893 10.4953 17.5096 10.3979C17.5299 10.3005 17.5788 10.2113 17.65 10.1419C19.25 8.57937 20.4145 6.12087 20.188 4.77387C19.9435 3.32387 18.9595 2.44187 17.801 2.64037C16.658 2.83237 15.96 4.24037 15.951 4.25537C15.9165 4.328 15.865 4.39122 15.8008 4.43969C15.7366 4.48815 15.6617 4.52043 15.5824 4.53378C15.5031 4.54712 15.4218 4.54115 15.3453 4.51636C15.2688 4.49157 15.1994 4.44869 15.143 4.39137C15.1325 4.38137 14.018 3.27587 12.8685 3.46937C11.7075 3.66437 11.0685 4.81487 11.3105 6.26637C11.4307 6.7915 11.668 7.28271 12.0045 7.70337C12.0779 7.8103 12.1069 7.94157 12.0853 8.06946C12.0638 8.19735 11.9934 8.31186 11.889 8.38882C11.7846 8.46577 11.6543 8.49915 11.5258 8.4819C11.3972 8.46465 11.2804 8.39813 11.2 8.29637C10.7686 7.75103 10.4693 7.11321 10.3255 6.43287C9.98951 4.43287 10.99 2.77187 12.704 2.48287C13.1797 2.43344 13.6604 2.47839 14.1187 2.61516C14.577 2.75193 15.0037 2.97782 15.3745 3.27987C15.626 2.87351 15.9553 2.52077 16.3433 2.24184C16.7314 1.96291 17.1707 1.76328 17.636 1.65437C19.3495 1.36737 20.8385 2.60837 21.1755 4.60837C21.4875 6.46237 19.951 9.29587 18.349 10.8584C18.2557 10.9495 18.1304 11.0003 18 10.9999Z" fill="#96435D"/>
<path d="M14.436 13.9576C14.424 13.9576 14.412 13.9576 14.4 13.9576C13.097 13.8636 11.141 12.2601 10.911 11.0971C10.7856 10.616 10.8547 10.1048 11.1035 9.67434C11.3522 9.24385 11.7605 8.92868 12.24 8.79709C12.6767 8.71714 13.1271 8.76131 13.54 8.92459C13.8594 8.61655 14.2589 8.40448 14.693 8.31259C15.1868 8.25164 15.6847 8.38779 16.0787 8.69152C16.4728 8.99525 16.7312 9.44207 16.798 9.93509C16.8548 10.5478 16.7366 11.164 16.457 11.7121C16.431 11.773 16.3931 11.8281 16.3455 11.8742C16.298 11.9203 16.2418 11.9565 16.1802 11.9807C16.1186 12.0049 16.0527 12.0167 15.9865 12.0152C15.9203 12.0138 15.8551 11.9993 15.7946 11.9724C15.734 11.9455 15.6794 11.9069 15.634 11.8588C15.5885 11.8107 15.553 11.754 15.5296 11.6921C15.5062 11.6301 15.4953 11.5642 15.4976 11.498C15.4999 11.4318 15.5154 11.3668 15.543 11.3066C15.7375 10.9453 15.8319 10.5386 15.8165 10.1286C15.7225 9.65509 15.3285 9.20659 14.8865 9.29359C14.563 9.3752 14.2757 9.56177 14.0695 9.82409C13.9954 9.92919 13.8837 10.0017 13.7575 10.0266C13.6313 10.0514 13.5004 10.0267 13.392 9.95759C13.1017 9.79242 12.7644 9.72922 12.434 9.77809C11.994 9.86509 11.799 10.4306 11.8925 10.9046C12.015 11.5251 13.4305 12.7636 14.3325 12.9421C14.6037 12.7399 14.8387 12.4933 15.0275 12.2126C15.0652 12.1581 15.1133 12.1117 15.1691 12.0759C15.2249 12.0402 15.2872 12.0159 15.3524 12.0045C15.4177 11.993 15.4846 11.9947 15.5492 12.0093C15.6138 12.0239 15.6748 12.0513 15.7288 12.0897C15.7827 12.1281 15.8285 12.1769 15.8635 12.2331C15.8984 12.2894 15.9218 12.3521 15.9324 12.4175C15.9429 12.4829 15.9404 12.5497 15.9248 12.6141C15.9093 12.6785 15.8812 12.7392 15.842 12.7926C15.5387 13.2505 15.1337 13.6321 14.6585 13.9076C14.5892 13.9412 14.513 13.9583 14.436 13.9576Z" fill="#96435D"/>
</g>
<defs>
<clipPath id="clip0_28_222">
<rect width="32" height="32" fill="white"/>
</clipPath>
</defs>
</svg>
